<svg width="19" height="20" viewBox="0 0 19 20" fill="none" xmlns="http://www.w3.org/2000/svg">
<path d="M12.6398 17.3578C11.6699 17.763 10.6141 17.9962 9.49693 17.9962C7.54492 17.9962 5.76479 17.2965 4.36523 16.1547C4.36523 16.1547 4.47573 16.2284 4.54939 16.2898C6.09626 12.9259 10.8719 11.2563 10.8719 11.2563C10.8842 11.2563 10.9088 11.244 10.921 11.244C12.0505 14.1904 12.517 16.6458 12.6398 17.3578ZM10.3686 9.90583C10.2704 9.94266 10.1599 9.96722 10.0494 10.004C10.0494 10.004 5.7034 11.4036 3.50586 15.3199C2.22907 13.8958 1.44336 12.0052 1.44336 9.94266C1.44336 9.85672 1.44336 9.77079 1.45564 9.68485C1.59068 9.68485 5.56836 9.78306 9.71791 8.54311C9.95117 8.99735 10.1722 9.45159 10.3686 9.90583ZM9.05497 7.30315C5.18778 8.32213 1.82394 8.2853 1.61523 8.2853C2.14314 5.79311 3.81278 3.71833 6.05943 2.66253C6.16992 2.80985 7.65541 4.82324 9.05497 7.30315ZM17.4523 11.2194C17.084 13.4661 15.8072 15.4058 14.0025 16.6212C13.9166 16.1424 13.4869 13.773 12.4311 10.8634C15.0338 10.4583 17.2804 11.1703 17.4523 11.2194ZM7.56948 2.12235C7.5572 2.12235 7.54492 2.13463 7.54492 2.13463C7.5572 2.12235 7.5572 2.12235 7.56948 2.12235ZM14.8128 3.90248C14.7882 3.93931 13.6465 5.68262 10.6141 6.81208C9.23912 4.28306 7.7168 2.28195 7.59403 2.12235C8.20787 1.97503 8.84626 1.88909 9.49693 1.88909C11.5349 1.88909 13.4009 2.65025 14.8128 3.90248ZM17.5505 9.85672C17.4523 9.84445 14.7146 9.24288 11.94 9.59891C11.8786 9.46387 11.8295 9.31655 11.7681 9.1815C11.5963 8.78864 11.4121 8.39579 11.228 8.01521C14.4076 6.71387 15.6967 4.8478 15.7213 4.82324C16.8507 6.19824 17.5259 7.95382 17.5505 9.85672ZM18.9255 9.94266C18.9255 4.7373 14.7023 0.514089 9.49693 0.514089C4.29157 0.514089 0.0683594 4.7373 0.0683594 9.94266C0.0683594 15.148 4.29157 19.3712 9.49693 19.3712C14.7023 19.3712 18.9255 15.148 18.9255 9.94266Z" fill="#151439" fill-opacity="0.4"/>
</svg>
