<svg width="19" height="20" viewBox="0 0 19 20" fill="none" xmlns="http://www.w3.org/2000/svg">
<path d="M15.3898 0.514089H3.60407C1.65206 0.514089 0.0683594 2.0978 0.0683594 4.0498V15.8355C0.0683594 17.7875 1.65206 19.3712 3.60407 19.3712H10.1353V12.0665H7.67997V9.21833H10.1353V7.119C10.1353 4.6882 11.6331 3.3623 13.8061 3.3623C14.8373 3.3623 15.7335 3.43596 15.9914 3.4728V6.01409L14.4936 6.02637C13.3027 6.02637 13.0818 6.57882 13.0818 7.40137V9.21833H15.8931L15.5248 12.0665H13.0818V19.3712H15.3898C17.3418 19.3712 18.9255 17.7875 18.9255 15.8355V4.0498C18.9255 2.0978 17.3418 0.514089 15.3898 0.514089Z" fill="#151439" fill-opacity="0.4"/>
</svg>
