<svg width="21" height="16" viewBox="0 0 21 16" fill="none" xmlns="http://www.w3.org/2000/svg">
<path d="M20.1726 1.95159C19.4605 2.25851 18.6871 2.47949 17.8891 2.56543C18.7116 2.07436 19.3378 1.30092 19.6324 0.380162C18.8712 0.834402 18.0119 1.16588 17.1157 1.33775C16.3913 0.564313 15.3601 0.0855186 14.2183 0.0855186C12.0208 0.0855186 10.2529 1.86565 10.2529 4.05092C10.2529 4.35784 10.2898 4.66476 10.3511 4.9594C7.06097 4.78753 4.12681 3.2161 2.1748 0.809849C1.83105 1.39913 1.63463 2.07436 1.63463 2.81096C1.63463 4.18596 2.3344 5.40137 3.40248 6.11342C2.75181 6.08887 2.13797 5.90472 1.61007 5.61007C1.61007 5.62235 1.61007 5.6469 1.61007 5.65918C1.61007 7.58663 2.9728 9.18262 4.78976 9.55092C4.45829 9.63686 4.10226 9.68597 3.74623 9.68597C3.48842 9.68597 3.24289 9.66141 2.99735 9.62458C3.5007 11.196 4.96164 12.3378 6.70494 12.3746C5.34222 13.4427 3.63574 14.0688 1.78195 14.0688C1.45047 14.0688 1.14355 14.0565 0.824358 14.0197C2.57994 15.1491 4.66699 15.7998 6.91364 15.7998C14.2061 15.7998 18.196 9.75963 18.196 4.51744C18.196 4.34556 18.196 4.17369 18.1837 4.00181C18.9572 3.43708 19.6324 2.7373 20.1726 1.95159Z" fill="#151439" fill-opacity="0.4"/>
</svg>
